<svg width="173" height="40" viewBox="0 0 173 40" fill="none" xmlns="http://www.w3.org/2000/svg">
<path d="M17.784 34.2C18.968 34.2 19.8 33.864 20.28 33.192C20.76 32.52 21 31.768 21 30.936V8.952C21 8.152 20.76 7.416 20.28 6.744C19.8 6.072 18.968 5.736 17.784 5.736H6.552L6.504 37.032C6.504 37.736 6.232 38.296 5.688 38.712C5.144 39.128 4.472 39.336 3.672 39.336C1.784 39.336 0.84 38.568 0.84 37.032V3.768C0.84 2.616 1.128 1.848 1.704 1.464C2.312 1.08 3.032 0.887999 3.864 0.887999H18.984C19.816 0.887999 20.68 1.064 21.576 1.416C22.472 1.768 23.336 2.216 24.168 2.76H24.12C24.952 3.368 25.592 4.168 26.04 5.16C26.488 6.12 26.712 7.24 26.712 8.52V31.32C26.712 33.912 25.848 35.848 24.12 37.128C23.288 37.736 22.424 38.216 21.528 38.568C20.664 38.888 19.816 39.048 18.984 39.048H10.92C10.376 39.048 9.944 38.824 9.624 38.376C9.336 37.928 9.192 37.336 9.192 36.6C9.192 35 9.88 34.2 11.256 34.2H17.784ZM95.5478 35.064C95.5478 36.152 95.1798 37.08 94.4438 37.848C93.7078 38.584 92.7958 38.952 91.7078 38.952C90.6198 38.952 89.7078 38.584 88.9718 37.848C88.2358 37.08 87.8678 36.152 87.8678 35.064C87.8678 34.008 88.2358 33.112 88.9718 32.376C89.7078 31.608 90.6198 31.224 91.7078 31.224C92.7958 31.224 93.7078 31.608 94.4438 32.376C95.1798 33.112 95.5478 34.008 95.5478 35.064Z" fill="#2649D1"/>
<path d="M48.9086 10.104C49.7406 10.104 50.5886 10.28 51.4526 10.632C52.3486 10.984 53.2126 11.432 54.0446 11.976H53.9966C54.8286 12.584 55.4686 13.384 55.9166 14.376C56.3646 15.336 56.5886 16.456 56.5886 17.736V31.368C56.5886 33.992 55.7246 35.928 53.9966 37.176C52.3006 38.392 50.6046 39 48.9086 39H41.2286C40.3966 39 39.5486 38.856 38.6846 38.568C37.8206 38.28 36.9726 37.816 36.1406 37.176C34.4126 35.96 33.5486 34.024 33.5486 31.368V17.736C33.5486 16.456 33.7726 15.336 34.2206 14.376C34.6686 13.384 35.3086 12.584 36.1406 11.976H36.0926C36.8926 11.432 37.7406 10.984 38.6366 10.632C39.5326 10.28 40.3966 10.104 41.2286 10.104H48.9086ZM48.0446 34.488C49.2286 34.488 50.0606 34.152 50.5406 33.48C51.0526 32.808 51.3086 32.088 51.3086 31.32V17.784C51.3086 16.984 51.0526 16.264 50.5406 15.624C50.0606 14.952 49.2286 14.616 48.0446 14.616H42.0926C40.9086 14.616 40.0606 14.952 39.5486 15.624C39.0686 16.264 38.8286 16.984 38.8286 17.784V31.32C38.8286 32.088 39.0686 32.808 39.5486 33.48C40.0606 34.152 40.9086 34.488 42.0926 34.488H48.0446ZM67.938 30.984V37.08C67.938 38.584 67.058 39.336 65.298 39.336C63.538 39.336 62.658 38.584 62.658 37.08V2.904C62.658 1.368 63.538 0.599999 65.298 0.599999C67.058 0.599999 67.938 1.368 67.938 2.904V23.256C68.738 22.296 69.618 21.272 70.578 20.184C71.57 19.064 72.546 17.944 73.506 16.824C74.498 15.672 75.474 14.552 76.434 13.464C77.394 12.344 78.29 11.304 79.122 10.344V10.392C79.698 9.72 80.274 9.384 80.85 9.384C81.17 9.384 81.474 9.464 81.762 9.624C82.082 9.752 82.418 9.944 82.77 10.2H82.722C83.49 10.84 83.874 11.48 83.874 12.12C83.874 12.344 83.826 12.6 83.73 12.888C83.634 13.144 83.474 13.368 83.25 13.56L67.938 30.984ZM83.97 35.784C84.194 36.2 84.306 36.632 84.306 37.08C84.306 37.912 83.826 38.536 82.866 38.952C82.226 39.336 81.65 39.528 81.138 39.528C80.786 39.528 80.45 39.4 80.13 39.144C79.81 38.92 79.554 38.632 79.362 38.28L74.562 29.016C74.274 28.536 74.13 28.056 74.13 27.576C74.13 26.776 74.546 26.104 75.378 25.56C75.602 25.4 75.826 25.256 76.05 25.128C76.306 25 76.578 24.904 76.866 24.84C77.218 24.776 77.554 24.84 77.874 25.032C78.194 25.224 78.466 25.48 78.69 25.8L83.97 35.784ZM107.172 36.984C107.172 38.52 106.292 39.288 104.532 39.288C102.772 39.288 101.892 38.52 101.892 36.984V17.688C101.892 16.376 102.1 15.24 102.516 14.28C102.932 13.32 103.588 12.536 104.484 11.928C106.18 10.712 107.876 10.104 109.572 10.104H117.3C118.932 10.104 120.628 10.712 122.388 11.928C124.116 13.144 124.98 15.064 124.98 17.688V36.984C124.98 38.52 124.1 39.288 122.34 39.288C120.58 39.288 119.7 38.52 119.7 36.984V18.12C119.7 17.288 119.444 16.488 118.932 15.72L118.98 15.768C118.564 15 117.716 14.616 116.436 14.616H110.436C109.124 14.616 108.26 15 107.844 15.768C107.396 16.44 107.172 17.224 107.172 18.12V36.984ZM136.469 31.32C136.469 32.088 136.709 32.808 137.189 33.48C137.701 34.152 138.549 34.488 139.733 34.488H145.733C146.917 34.488 147.749 34.2 148.229 33.624C148.741 33.016 148.997 32.328 148.997 31.56V31.032C148.997 29.528 149.877 28.776 151.637 28.776C153.397 28.776 154.277 29.528 154.277 31.032V31.608C154.277 32.952 154.053 34.056 153.605 34.92C153.189 35.784 152.549 36.536 151.685 37.176C149.989 38.392 148.293 39 146.597 39H138.533C136.837 39 135.189 38.392 133.589 37.176C132.821 36.536 132.229 35.736 131.813 34.776C131.397 33.784 131.189 32.648 131.189 31.368V17.688C131.189 15.096 131.989 13.176 133.589 11.928C134.389 11.352 135.205 10.904 136.037 10.584C136.901 10.232 137.733 10.056 138.533 10.056H146.597C147.365 10.056 148.213 10.216 149.141 10.536C150.069 10.824 150.933 11.224 151.733 11.736C152.501 12.28 153.109 13.032 153.557 13.992C154.037 14.952 154.277 16.088 154.277 17.4V23.88C154.277 24.616 154.053 25.272 153.605 25.848C153.189 26.424 152.405 26.712 151.253 26.712H140.885C139.733 26.712 139.125 25.96 139.061 24.456C139.061 22.952 139.669 22.2 140.885 22.2H149.045L148.997 17.736C148.997 16.936 148.741 16.216 148.229 15.576C147.749 14.904 146.917 14.568 145.733 14.568H139.733C138.549 14.568 137.701 14.904 137.189 15.576C136.709 16.216 136.469 16.936 136.469 17.736V31.32ZM166.68 14.616V32.088C166.68 32.92 166.856 33.56 167.208 34.008C167.56 34.456 168.312 34.68 169.464 34.68H170.712C171.96 34.68 172.552 35.416 172.488 36.888C172.488 38.392 171.896 39.144 170.712 39.144H169.128C168.104 39.144 167.144 39.016 166.248 38.76C165.352 38.472 164.488 38.072 163.656 37.56V37.608C162.088 36.584 161.304 34.76 161.304 32.136V14.616H159.432C158.28 14.616 157.672 13.864 157.608 12.36C157.608 10.856 158.216 10.104 159.432 10.104H161.304V4.968C161.304 3.432 162.216 2.664 164.04 2.664C165.8 2.664 166.68 3.432 166.68 4.968V10.104H170.664C171.912 10.104 172.504 10.856 172.44 12.36C172.44 13.864 171.848 14.616 170.664 14.616H166.68Z" fill="white"/>
</svg>
