<svg width="29" height="29" viewBox="0 0 29 29" xmlns="http://www.w3.org/2000/svg">
<path d="M0 8.67758C0.0958099 8.00094 0.168808 7.32045 0.290588 6.64873C0.980911 2.84405 3.67447 0.255429 7.52582 0.122769C12.1629 -0.0365629 16.8141 -0.0449857 21.4505 0.122068C25.6423 0.272977 28.678 3.3768 28.809 7.56997C28.9483 12.0225 28.9483 16.4859 28.809 20.9384C28.678 25.1316 25.6434 28.2351 21.4509 28.3864C16.8145 28.5538 12.1622 28.558 7.52617 28.3839C3.33369 28.2263 0.435532 25.1155 0.155121 20.916C0.130905 20.5527 0.0529938 20.1927 0 19.8312C0 16.1132 0 12.3952 0 8.67758ZM14.4606 25.9013C16.5825 25.9013 18.7064 25.9648 20.8255 25.8865C24.148 25.7633 26.1916 23.7805 26.2691 20.4611C26.3653 16.3252 26.3653 12.1836 26.2691 8.04727C26.1916 4.72867 24.1466 2.69946 20.8255 2.62892C16.6102 2.53978 12.3904 2.54048 8.17508 2.62892C4.87929 2.69806 2.82973 4.6862 2.74023 7.96831C2.62653 12.1566 2.62653 16.3522 2.74023 20.5405C2.82973 23.8222 4.87929 25.7644 8.17543 25.8865C10.2678 25.9644 12.3654 25.9013 14.4606 25.9013Z"/>
<path d="M14.4568 6.8891C10.3878 6.8891 7.08887 10.1877 7.08887 14.2566C7.08887 18.3259 10.3878 21.6245 14.4568 21.6245C18.5261 21.6245 21.8247 18.3259 21.8247 14.2566C21.8247 10.1877 18.5261 6.8891 14.4568 6.8891ZM14.4568 19.0878C11.7885 19.0878 9.62555 16.9249 9.62555 14.2566C9.62555 11.5883 11.7885 9.42543 14.4568 9.42543C17.125 9.42543 19.288 11.5883 19.288 14.2566C19.288 16.9249 17.125 19.0878 14.4568 19.0878Z"/>
<path d="M24.0076 6.55293C24.0076 7.52086 23.2229 8.30559 22.255 8.30559C21.287 8.30559 20.502 7.52086 20.502 6.55293C20.502 5.58466 21.287 4.79993 22.255 4.79993C23.2229 4.79993 24.0076 5.58466 24.0076 6.55293Z"/>
</svg>
