<svg width="130" height="30" viewBox="0 0 130 30" fill="none" xmlns="http://www.w3.org/2000/svg">
<path d="M13.588 25.4C14.476 25.4 15.1 25.148 15.46 24.644C15.82 24.14 16 23.576 16 22.952V6.464C16 5.864 15.82 5.312 15.46 4.808C15.1 4.304 14.476 4.052 13.588 4.052H5.164L5.128 27.524C5.128 28.052 4.924 28.472 4.516 28.784C4.108 29.096 3.604 29.252 3.004 29.252C1.588 29.252 0.88 28.676 0.88 27.524V2.576C0.88 1.712 1.096 1.136 1.528 0.847998C1.984 0.559999 2.524 0.415999 3.148 0.415999H14.488C15.112 0.415999 15.76 0.547999 16.432 0.811998C17.104 1.076 17.752 1.412 18.376 1.82H18.34C18.964 2.276 19.444 2.876 19.78 3.62C20.116 4.34 20.284 5.18 20.284 6.14V23.24C20.284 25.184 19.636 26.636 18.34 27.596C17.716 28.052 17.068 28.412 16.396 28.676C15.748 28.916 15.112 29.036 14.488 29.036H8.44C8.032 29.036 7.708 28.868 7.468 28.532C7.252 28.196 7.144 27.752 7.144 27.2C7.144 26 7.66 25.4 8.692 25.4H13.588Z" fill="#2649D1"/>
<path d="M36.9315 7.328C37.5555 7.328 38.1915 7.46 38.8395 7.724C39.5115 7.988 40.1595 8.324 40.7835 8.732H40.7475C41.3715 9.188 41.8515 9.788 42.1875 10.532C42.5235 11.252 42.6915 12.092 42.6915 13.052V23.276C42.6915 25.244 42.0435 26.696 40.7475 27.632C39.4755 28.544 38.2035 29 36.9315 29H31.1715C30.5475 29 29.9115 28.892 29.2635 28.676C28.6155 28.46 27.9795 28.112 27.3555 27.632C26.0595 26.72 25.4115 25.268 25.4115 23.276V13.052C25.4115 12.092 25.5795 11.252 25.9155 10.532C26.2515 9.788 26.7315 9.188 27.3555 8.732H27.3195C27.9195 8.324 28.5555 7.988 29.2275 7.724C29.8995 7.46 30.5475 7.328 31.1715 7.328H36.9315ZM36.2835 25.616C37.1715 25.616 37.7955 25.364 38.1555 24.86C38.5395 24.356 38.7315 23.816 38.7315 23.24V13.088C38.7315 12.488 38.5395 11.948 38.1555 11.468C37.7955 10.964 37.1715 10.712 36.2835 10.712H31.8195C30.9315 10.712 30.2955 10.964 29.9115 11.468C29.5515 11.948 29.3715 12.488 29.3715 13.088V23.24C29.3715 23.816 29.5515 24.356 29.9115 24.86C30.2955 25.364 30.9315 25.616 31.8195 25.616H36.2835ZM51.2035 22.988V27.56C51.2035 28.688 50.5435 29.252 49.2235 29.252C47.9035 29.252 47.2435 28.688 47.2435 27.56V1.928C47.2435 0.775999 47.9035 0.2 49.2235 0.2C50.5435 0.2 51.2035 0.775999 51.2035 1.928V17.192C51.8035 16.472 52.4635 15.704 53.1835 14.888C53.9275 14.048 54.6595 13.208 55.3795 12.368C56.1235 11.504 56.8555 10.664 57.5755 9.848C58.2955 9.008 58.9675 8.228 59.5915 7.508V7.544C60.0235 7.04 60.4555 6.788 60.8875 6.788C61.1275 6.788 61.3555 6.848 61.5715 6.968C61.8115 7.064 62.0635 7.208 62.3275 7.4H62.2915C62.8675 7.88 63.1555 8.36 63.1555 8.84C63.1555 9.008 63.1195 9.2 63.0475 9.416C62.9755 9.608 62.8555 9.776 62.6875 9.92L51.2035 22.988ZM63.2275 26.588C63.3955 26.9 63.4795 27.224 63.4795 27.56C63.4795 28.184 63.1195 28.652 62.3995 28.964C61.9195 29.252 61.4875 29.396 61.1035 29.396C60.8395 29.396 60.5875 29.3 60.3475 29.108C60.1075 28.94 59.9155 28.724 59.7715 28.46L56.1715 21.512C55.9555 21.152 55.8475 20.792 55.8475 20.432C55.8475 19.832 56.1595 19.328 56.7835 18.92C56.9515 18.8 57.1195 18.692 57.2875 18.596C57.4795 18.5 57.6835 18.428 57.8995 18.38C58.1635 18.332 58.4155 18.38 58.6555 18.524C58.8955 18.668 59.0995 18.86 59.2675 19.1L63.2275 26.588ZM71.9108 26.048C71.9108 26.864 71.6348 27.56 71.0828 28.136C70.5308 28.688 69.8468 28.964 69.0308 28.964C68.2148 28.964 67.5308 28.688 66.9788 28.136C66.4268 27.56 66.1508 26.864 66.1508 26.048C66.1508 25.256 66.4268 24.584 66.9788 24.032C67.5308 23.456 68.2148 23.168 69.0308 23.168C69.8468 23.168 70.5308 23.456 71.0828 24.032C71.6348 24.584 71.9108 25.256 71.9108 26.048ZM80.6293 27.488C80.6293 28.64 79.9693 29.216 78.6493 29.216C77.3293 29.216 76.6693 28.64 76.6693 27.488V13.016C76.6693 12.032 76.8253 11.18 77.1373 10.46C77.4493 9.74 77.9413 9.152 78.6133 8.696C79.8853 7.784 81.1573 7.328 82.4293 7.328H88.2253C89.4493 7.328 90.7213 7.784 92.0413 8.696C93.3373 9.608 93.9853 11.048 93.9853 13.016V27.488C93.9853 28.64 93.3253 29.216 92.0053 29.216C90.6853 29.216 90.0253 28.64 90.0253 27.488V13.34C90.0253 12.716 89.8333 12.116 89.4493 11.54L89.4853 11.576C89.1733 11 88.5373 10.712 87.5773 10.712H83.0773C82.0933 10.712 81.4453 11 81.1333 11.576C80.7973 12.08 80.6293 12.668 80.6293 13.34V27.488ZM102.602 23.24C102.602 23.816 102.782 24.356 103.142 24.86C103.526 25.364 104.162 25.616 105.05 25.616H109.55C110.438 25.616 111.062 25.4 111.422 24.968C111.806 24.512 111.998 23.996 111.998 23.42V23.024C111.998 21.896 112.658 21.332 113.978 21.332C115.298 21.332 115.958 21.896 115.958 23.024V23.456C115.958 24.464 115.79 25.292 115.454 25.94C115.142 26.588 114.662 27.152 114.014 27.632C112.742 28.544 111.47 29 110.198 29H104.15C102.878 29 101.642 28.544 100.442 27.632C99.8659 27.152 99.4219 26.552 99.1099 25.832C98.7979 25.088 98.6419 24.236 98.6419 23.276V13.016C98.6419 11.072 99.2419 9.632 100.442 8.696C101.042 8.264 101.654 7.928 102.278 7.688C102.926 7.424 103.55 7.292 104.15 7.292H110.198C110.774 7.292 111.41 7.412 112.106 7.652C112.802 7.868 113.45 8.168 114.05 8.552C114.626 8.96 115.082 9.524 115.418 10.244C115.778 10.964 115.958 11.816 115.958 12.8V17.66C115.958 18.212 115.79 18.704 115.454 19.136C115.142 19.568 114.554 19.784 113.69 19.784H105.914C105.05 19.784 104.594 19.22 104.546 18.092C104.546 16.964 105.002 16.4 105.914 16.4H112.034L111.998 13.052C111.998 12.452 111.806 11.912 111.422 11.432C111.062 10.928 110.438 10.676 109.55 10.676H105.05C104.162 10.676 103.526 10.928 103.142 11.432C102.782 11.912 102.602 12.452 102.602 13.052V23.24ZM125.26 10.712V23.816C125.26 24.44 125.392 24.92 125.656 25.256C125.92 25.592 126.484 25.76 127.348 25.76H128.284C129.22 25.76 129.664 26.312 129.616 27.416C129.616 28.544 129.172 29.108 128.284 29.108H127.096C126.328 29.108 125.608 29.012 124.936 28.82C124.264 28.604 123.616 28.304 122.992 27.92V27.956C121.816 27.188 121.228 25.82 121.228 23.852V10.712H119.824C118.96 10.712 118.504 10.148 118.456 9.02C118.456 7.892 118.912 7.328 119.824 7.328H121.228V3.476C121.228 2.324 121.912 1.748 123.28 1.748C124.6 1.748 125.26 2.324 125.26 3.476V7.328H128.248C129.184 7.328 129.628 7.892 129.58 9.02C129.58 10.148 129.136 10.712 128.248 10.712H125.26Z" fill="#3D3D3D"/>
</svg>
