<svg width="108" height="25" viewBox="0 0 108 25" fill="none" xmlns="http://www.w3.org/2000/svg">
<path d="M10.99 21C11.73 21 12.25 20.79 12.55 20.37C12.85 19.95 13 19.48 13 18.96V5.22C13 4.72 12.85 4.26 12.55 3.84C12.25 3.42 11.73 3.21 10.99 3.21H3.97L3.94 22.77C3.94 23.21 3.77 23.56 3.43 23.82C3.09 24.08 2.67 24.21 2.17 24.21C0.99 24.21 0.4 23.73 0.4 22.77V1.98C0.4 1.26 0.58 0.779999 0.94 0.539998C1.32 0.299999 1.77 0.179999 2.29 0.179999H11.74C12.26 0.179999 12.8 0.289999 13.36 0.509998C13.92 0.729999 14.46 1.01 14.98 1.35H14.95C15.47 1.73 15.87 2.23 16.15 2.85C16.43 3.45 16.57 4.15 16.57 4.95V19.2C16.57 20.82 16.03 22.03 14.95 22.83C14.43 23.21 13.89 23.51 13.33 23.73C12.79 23.93 12.26 24.03 11.74 24.03H6.7C6.36 24.03 6.09 23.89 5.89 23.61C5.71 23.33 5.62 22.96 5.62 22.5C5.62 21.5 6.05 21 6.91 21H10.99Z" fill="#2649D1"/>
<path d="M30.4429 5.94C30.9629 5.94 31.4929 6.05 32.0329 6.27C32.5929 6.49 33.1329 6.77 33.6529 7.11H33.6229C34.1429 7.49 34.5429 7.99 34.8229 8.61C35.1029 9.21 35.2429 9.91 35.2429 10.71V19.23C35.2429 20.87 34.7029 22.08 33.6229 22.86C32.5629 23.62 31.5029 24 30.4429 24H25.6429C25.1229 24 24.5929 23.91 24.0529 23.73C23.5129 23.55 22.9829 23.26 22.4629 22.86C21.3829 22.1 20.8429 20.89 20.8429 19.23V10.71C20.8429 9.91 20.9829 9.21 21.2629 8.61C21.5429 7.99 21.9429 7.49 22.4629 7.11H22.4329C22.9329 6.77 23.4629 6.49 24.0229 6.27C24.5829 6.05 25.1229 5.94 25.6429 5.94H30.4429ZM29.9029 21.18C30.6429 21.18 31.1629 20.97 31.4629 20.55C31.7829 20.13 31.9429 19.68 31.9429 19.2V10.74C31.9429 10.24 31.7829 9.79 31.4629 9.39C31.1629 8.97 30.6429 8.76 29.9029 8.76H26.1829C25.4429 8.76 24.9129 8.97 24.5929 9.39C24.2929 9.79 24.1429 10.24 24.1429 10.74V19.2C24.1429 19.68 24.2929 20.13 24.5929 20.55C24.9129 20.97 25.4429 21.18 26.1829 21.18H29.9029ZM42.3363 18.99V22.8C42.3363 23.74 41.7863 24.21 40.6863 24.21C39.5863 24.21 39.0363 23.74 39.0363 22.8V1.44C39.0363 0.479999 39.5863 -3.57628e-07 40.6863 -3.57628e-07C41.7863 -3.57628e-07 42.3363 0.479999 42.3363 1.44V14.16C42.8363 13.56 43.3863 12.92 43.9863 12.24C44.6063 11.54 45.2163 10.84 45.8163 10.14C46.4363 9.42 47.0463 8.72 47.6463 8.04C48.2463 7.34 48.8063 6.69 49.3263 6.09V6.12C49.6863 5.7 50.0463 5.49 50.4063 5.49C50.6063 5.49 50.7963 5.54 50.9763 5.64C51.1763 5.72 51.3863 5.84 51.6063 6H51.5763C52.0563 6.4 52.2963 6.8 52.2963 7.2C52.2963 7.34 52.2663 7.5 52.2063 7.68C52.1463 7.84 52.0463 7.98 51.9062 8.1L42.3363 18.99ZM52.3563 21.99C52.4963 22.25 52.5663 22.52 52.5663 22.8C52.5663 23.32 52.2663 23.71 51.6663 23.97C51.2663 24.21 50.9063 24.33 50.5863 24.33C50.3663 24.33 50.1563 24.25 49.9563 24.09C49.7563 23.95 49.5963 23.77 49.4763 23.55L46.4763 17.76C46.2963 17.46 46.2063 17.16 46.2063 16.86C46.2063 16.36 46.4663 15.94 46.9863 15.6C47.1263 15.5 47.2663 15.41 47.4063 15.33C47.5663 15.25 47.7363 15.19 47.9163 15.15C48.1363 15.11 48.3463 15.15 48.5463 15.27C48.7463 15.39 48.9163 15.55 49.0563 15.75L52.3563 21.99ZM59.5923 21.54C59.5923 22.22 59.3623 22.8 58.9023 23.28C58.4423 23.74 57.8723 23.97 57.1923 23.97C56.5123 23.97 55.9423 23.74 55.4823 23.28C55.0223 22.8 54.7923 22.22 54.7923 21.54C54.7923 20.88 55.0223 20.32 55.4823 19.86C55.9423 19.38 56.5123 19.14 57.1923 19.14C57.8723 19.14 58.4423 19.38 58.9023 19.86C59.3623 20.32 59.5923 20.88 59.5923 21.54ZM66.8577 22.74C66.8577 23.7 66.3077 24.18 65.2077 24.18C64.1077 24.18 63.5577 23.7 63.5577 22.74V10.68C63.5577 9.86 63.6877 9.15 63.9477 8.55C64.2077 7.95 64.6177 7.46 65.1777 7.08C66.2377 6.32 67.2977 5.94 68.3577 5.94H73.1877C74.2077 5.94 75.2677 6.32 76.3677 7.08C77.4477 7.84 77.9877 9.04 77.9877 10.68V22.74C77.9877 23.7 77.4377 24.18 76.3377 24.18C75.2377 24.18 74.6877 23.7 74.6877 22.74V10.95C74.6877 10.43 74.5277 9.93 74.2077 9.45L74.2377 9.48C73.9777 9 73.4477 8.76 72.6477 8.76H68.8977C68.0777 8.76 67.5377 9 67.2777 9.48C66.9977 9.9 66.8577 10.39 66.8577 10.95V22.74ZM85.1683 19.2C85.1683 19.68 85.3183 20.13 85.6183 20.55C85.9383 20.97 86.4683 21.18 87.2083 21.18H90.9583C91.6983 21.18 92.2183 21 92.5183 20.64C92.8383 20.26 92.9983 19.83 92.9983 19.35V19.02C92.9983 18.08 93.5483 17.61 94.6483 17.61C95.7483 17.61 96.2983 18.08 96.2983 19.02V19.38C96.2983 20.22 96.1583 20.91 95.8783 21.45C95.6183 21.99 95.2183 22.46 94.6783 22.86C93.6183 23.62 92.5583 24 91.4983 24H86.4583C85.3983 24 84.3683 23.62 83.3683 22.86C82.8883 22.46 82.5183 21.96 82.2583 21.36C81.9983 20.74 81.8683 20.03 81.8683 19.23V10.68C81.8683 9.06 82.3683 7.86 83.3683 7.08C83.8683 6.72 84.3783 6.44 84.8983 6.24C85.4383 6.02 85.9583 5.91 86.4583 5.91H91.4983C91.9783 5.91 92.5083 6.01 93.0883 6.21C93.6683 6.39 94.2083 6.64 94.7083 6.96C95.1883 7.3 95.5683 7.77 95.8483 8.37C96.1483 8.97 96.2983 9.68 96.2983 10.5V14.55C96.2983 15.01 96.1583 15.42 95.8783 15.78C95.6183 16.14 95.1283 16.32 94.4083 16.32H87.9283C87.2083 16.32 86.8283 15.85 86.7883 14.91C86.7883 13.97 87.1683 13.5 87.9283 13.5H93.0283L92.9983 10.71C92.9983 10.21 92.8383 9.76 92.5183 9.36C92.2183 8.94 91.6983 8.73 90.9583 8.73H87.2083C86.4683 8.73 85.9383 8.94 85.6183 9.36C85.3183 9.76 85.1683 10.21 85.1683 10.71V19.2ZM104.05 8.76V19.68C104.05 20.2 104.16 20.6 104.38 20.88C104.6 21.16 105.07 21.3 105.79 21.3H106.57C107.35 21.3 107.72 21.76 107.68 22.68C107.68 23.62 107.31 24.09 106.57 24.09H105.58C104.94 24.09 104.34 24.01 103.78 23.85C103.22 23.67 102.68 23.42 102.16 23.1V23.13C101.18 22.49 100.69 21.35 100.69 19.71V8.76H99.5202C98.8002 8.76 98.4202 8.29 98.3802 7.35C98.3802 6.41 98.7602 5.94 99.5202 5.94H100.69V2.73C100.69 1.77 101.26 1.29 102.4 1.29C103.5 1.29 104.05 1.77 104.05 2.73V5.94H106.54C107.32 5.94 107.69 6.41 107.65 7.35C107.65 8.29 107.28 8.76 106.54 8.76H104.05Z" fill="#3D3D3D"/>
</svg>
