<svg width="117" height="21" viewBox="0 0 117 21" fill="none" xmlns="http://www.w3.org/2000/svg">
<path d="M1.656 3.368C1.096 3.368 0.8 2.96 0.768 2.144C0.768 1.344 1.064 0.943999 1.656 0.943999H12.192C12.72 0.943999 13.128 1.032 13.416 1.208C13.704 1.368 13.864 1.592 13.896 1.88C13.912 2.152 13.904 2.416 13.872 2.672C13.856 2.912 13.8 3.096 13.704 3.224L4.248 17.6H12.936C13.528 17.6 13.824 17.992 13.824 18.776C13.856 19.608 13.56 20.024 12.936 20.024H2.184C1.128 20.024 0.56 19.704 0.48 19.064C0.448 18.792 0.448 18.544 0.48 18.32C0.512 18.08 0.576 17.896 0.672 17.768C0.96 17.32 1.256 16.856 1.56 16.376C1.88 15.896 2.232 15.368 2.616 14.792C3 14.216 3.424 13.568 3.888 12.848C4.368 12.128 4.912 11.312 5.52 10.4C6.128 9.472 6.808 8.432 7.56 7.28C8.328 6.128 9.192 4.824 10.152 3.368H1.656Z" fill="#2649D1"/>
<path d="M24.8061 17.6C25.3981 17.6 25.8141 17.432 26.0541 17.096C26.2941 16.76 26.4141 16.384 26.4141 15.968V4.976C26.4141 4.576 26.2941 4.208 26.0541 3.872C25.8141 3.536 25.3981 3.368 24.8061 3.368H19.1901L19.1661 19.016C19.1661 19.368 19.0301 19.648 18.7581 19.856C18.4861 20.064 18.1501 20.168 17.7501 20.168C16.8061 20.168 16.3341 19.784 16.3341 19.016V2.384C16.3341 1.808 16.4781 1.424 16.7661 1.232C17.0701 1.04 17.4301 0.943999 17.8461 0.943999H25.4061C25.8221 0.943999 26.2541 1.032 26.7021 1.208C27.1501 1.384 27.5821 1.608 27.9981 1.88H27.9741C28.3901 2.184 28.7101 2.584 28.9341 3.08C29.1581 3.56 29.2701 4.12 29.2701 4.76V16.16C29.2701 17.456 28.8381 18.424 27.9741 19.064C27.5581 19.368 27.1261 19.608 26.6781 19.784C26.2461 19.944 25.8221 20.024 25.4061 20.024H21.3741C21.1021 20.024 20.8861 19.912 20.7261 19.688C20.5821 19.464 20.5101 19.168 20.5101 18.8C20.5101 18 20.8541 17.6 21.5421 17.6H24.8061ZM40.3684 5.552C40.7844 5.552 41.2084 5.64 41.6404 5.816C42.0884 5.992 42.5204 6.216 42.9364 6.488H42.9124C43.3284 6.792 43.6484 7.192 43.8724 7.688C44.0964 8.168 44.2084 8.728 44.2084 9.368V16.184C44.2084 17.496 43.7764 18.464 42.9124 19.088C42.0644 19.696 41.2164 20 40.3684 20H36.5284C36.1124 20 35.6884 19.928 35.2564 19.784C34.8244 19.64 34.4004 19.408 33.9844 19.088C33.1204 18.48 32.6884 17.512 32.6884 16.184V9.368C32.6884 8.728 32.8004 8.168 33.0244 7.688C33.2484 7.192 33.5684 6.792 33.9844 6.488H33.9604C34.3604 6.216 34.7844 5.992 35.2324 5.816C35.6804 5.64 36.1124 5.552 36.5284 5.552H40.3684ZM39.9364 17.744C40.5284 17.744 40.9444 17.576 41.1844 17.24C41.4404 16.904 41.5684 16.544 41.5684 16.16V9.392C41.5684 8.992 41.4404 8.632 41.1844 8.312C40.9444 7.976 40.5284 7.808 39.9364 7.808H36.9604C36.3684 7.808 35.9444 7.976 35.6884 8.312C35.4484 8.632 35.3284 8.992 35.3284 9.392V16.16C35.3284 16.544 35.4484 16.904 35.6884 17.24C35.9444 17.576 36.3684 17.744 36.9604 17.744H39.9364ZM58.7871 16.184C58.7871 17.496 58.3551 18.464 57.4911 19.088C56.6431 19.696 55.7951 20 54.9471 20H50.9151C50.0671 20 49.2431 19.696 48.4431 19.088C48.0591 18.768 47.7631 18.368 47.5551 17.888C47.3471 17.392 47.2431 16.824 47.2431 16.184V9.344C47.2431 8.048 47.6431 7.088 48.4431 6.464C48.8431 6.176 49.2511 5.952 49.6671 5.792C50.0991 5.616 50.5151 5.528 50.9151 5.528H54.9471C55.3311 5.528 55.7551 5.608 56.2191 5.768C56.6831 5.912 57.1151 6.112 57.5151 6.368C57.8991 6.64 58.2031 7.016 58.4271 7.496C58.6671 7.976 58.7871 8.544 58.7871 9.2V10.4C58.7871 11.168 58.3471 11.552 57.4671 11.552C56.5871 11.552 56.1471 11.168 56.1471 10.4V9.368C56.1471 8.968 56.0191 8.608 55.7631 8.288C55.5231 7.952 55.1071 7.784 54.5151 7.784H51.5151C50.9231 7.784 50.4991 7.952 50.2431 8.288C50.0031 8.608 49.8831 8.968 49.8831 9.368V16.16C49.8831 16.544 50.0031 16.904 50.2431 17.24C50.4991 17.576 50.9231 17.744 51.5151 17.744H54.5151C55.1071 17.744 55.5231 17.576 55.7631 17.24C56.0191 16.904 56.1471 16.544 56.1471 16.16V15.056C56.1471 14.304 56.5871 13.928 57.4671 13.928C58.3471 13.928 58.7871 14.304 58.7871 15.056V16.184ZM64.4378 15.992V19.04C64.4378 19.792 63.9978 20.168 63.1178 20.168C62.2378 20.168 61.7978 19.792 61.7978 19.04V1.952C61.7978 1.184 62.2378 0.8 63.1178 0.8C63.9978 0.8 64.4378 1.184 64.4378 1.952V12.128C64.8378 11.648 65.2778 11.136 65.7578 10.592C66.2538 10.032 66.7418 9.472 67.2218 8.912C67.7178 8.336 68.2058 7.776 68.6858 7.232C69.1658 6.672 69.6138 6.152 70.0298 5.672V5.696C70.3178 5.36 70.6058 5.192 70.8938 5.192C71.0538 5.192 71.2058 5.232 71.3498 5.312C71.5098 5.376 71.6778 5.472 71.8538 5.6H71.8298C72.2138 5.92 72.4058 6.24 72.4058 6.56C72.4058 6.672 72.3818 6.8 72.3338 6.944C72.2858 7.072 72.2058 7.184 72.0938 7.28L64.4378 15.992ZM72.4538 18.392C72.5658 18.6 72.6218 18.816 72.6218 19.04C72.6218 19.456 72.3818 19.768 71.9018 19.976C71.5818 20.168 71.2938 20.264 71.0378 20.264C70.8618 20.264 70.6938 20.2 70.5338 20.072C70.3738 19.96 70.2458 19.816 70.1498 19.64L67.7498 15.008C67.6058 14.768 67.5338 14.528 67.5338 14.288C67.5338 13.888 67.7418 13.552 68.1578 13.28C68.2698 13.2 68.3818 13.128 68.4938 13.064C68.6218 13 68.7578 12.952 68.9018 12.92C69.0778 12.888 69.2458 12.92 69.4058 13.016C69.5658 13.112 69.7018 13.24 69.8138 13.4L72.4538 18.392ZM78.2426 18.032C78.2426 18.576 78.0586 19.04 77.6906 19.424C77.3226 19.792 76.8666 19.976 76.3226 19.976C75.7786 19.976 75.3226 19.792 74.9546 19.424C74.5866 19.04 74.4026 18.576 74.4026 18.032C74.4026 17.504 74.5866 17.056 74.9546 16.688C75.3226 16.304 75.7786 16.112 76.3226 16.112C76.8666 16.112 77.3226 16.304 77.6906 16.688C78.0586 17.056 78.2426 17.504 78.2426 18.032ZM84.0549 18.992C84.0549 19.76 83.6149 20.144 82.7349 20.144C81.8549 20.144 81.4149 19.76 81.4149 18.992V9.344C81.4149 8.688 81.5189 8.12 81.7269 7.64C81.9349 7.16 82.2629 6.768 82.7109 6.464C83.5589 5.856 84.4069 5.552 85.2549 5.552H89.1189C89.9349 5.552 90.7829 5.856 91.6629 6.464C92.5269 7.072 92.9589 8.032 92.9589 9.344V18.992C92.9589 19.76 92.5189 20.144 91.6389 20.144C90.7589 20.144 90.3189 19.76 90.3189 18.992V9.56C90.3189 9.144 90.1909 8.744 89.9349 8.36L89.9589 8.384C89.7509 8 89.3269 7.808 88.6869 7.808H85.6869C85.0309 7.808 84.5989 8 84.3909 8.384C84.1669 8.72 84.0549 9.112 84.0549 9.56V18.992ZM98.7034 16.16C98.7034 16.544 98.8234 16.904 99.0634 17.24C99.3194 17.576 99.7434 17.744 100.335 17.744H103.335C103.927 17.744 104.343 17.6 104.583 17.312C104.839 17.008 104.967 16.664 104.967 16.28V16.016C104.967 15.264 105.407 14.888 106.287 14.888C107.167 14.888 107.607 15.264 107.607 16.016V16.304C107.607 16.976 107.495 17.528 107.271 17.96C107.063 18.392 106.743 18.768 106.311 19.088C105.463 19.696 104.615 20 103.767 20H99.7354C98.8874 20 98.0634 19.696 97.2634 19.088C96.8794 18.768 96.5834 18.368 96.3754 17.888C96.1674 17.392 96.0634 16.824 96.0634 16.184V9.344C96.0634 8.048 96.4634 7.088 97.2634 6.464C97.6634 6.176 98.0714 5.952 98.4874 5.792C98.9194 5.616 99.3354 5.528 99.7354 5.528H103.767C104.151 5.528 104.575 5.608 105.039 5.768C105.503 5.912 105.935 6.112 106.335 6.368C106.719 6.64 107.023 7.016 107.247 7.496C107.487 7.976 107.607 8.544 107.607 9.2V12.44C107.607 12.808 107.495 13.136 107.271 13.424C107.063 13.712 106.671 13.856 106.095 13.856H100.911C100.335 13.856 100.031 13.48 99.9994 12.728C99.9994 11.976 100.303 11.6 100.911 11.6H104.991L104.967 9.368C104.967 8.968 104.839 8.608 104.583 8.288C104.343 7.952 103.927 7.784 103.335 7.784H100.335C99.7434 7.784 99.3194 7.952 99.0634 8.288C98.8234 8.608 98.7034 8.968 98.7034 9.368V16.16ZM113.809 7.808V16.544C113.809 16.96 113.897 17.28 114.073 17.504C114.249 17.728 114.625 17.84 115.201 17.84H115.825C116.449 17.84 116.745 18.208 116.713 18.944C116.713 19.696 116.417 20.072 115.825 20.072H115.033C114.521 20.072 114.041 20.008 113.593 19.88C113.145 19.736 112.713 19.536 112.297 19.28V19.304C111.513 18.792 111.121 17.88 111.121 16.568V7.808H110.185C109.609 7.808 109.305 7.432 109.273 6.68C109.273 5.928 109.577 5.552 110.185 5.552H111.121V2.984C111.121 2.216 111.577 1.832 112.489 1.832C113.369 1.832 113.809 2.216 113.809 2.984V5.552H115.801C116.425 5.552 116.721 5.928 116.689 6.68C116.689 7.432 116.393 7.808 115.801 7.808H113.809Z" fill="white"/>
</svg>
