<svg width="87" height="21" viewBox="0 0 87 21" fill="none" xmlns="http://www.w3.org/2000/svg">
<path d="M9.392 17.6C9.984 17.6 10.4 17.432 10.64 17.096C10.88 16.76 11 16.384 11 15.968V4.976C11 4.576 10.88 4.208 10.64 3.872C10.4 3.536 9.984 3.368 9.392 3.368H3.776L3.752 19.016C3.752 19.368 3.616 19.648 3.344 19.856C3.072 20.064 2.736 20.168 2.336 20.168C1.392 20.168 0.92 19.784 0.92 19.016V2.384C0.92 1.808 1.064 1.424 1.352 1.232C1.656 1.04 2.016 0.943999 2.432 0.943999H9.992C10.408 0.943999 10.84 1.032 11.288 1.208C11.736 1.384 12.168 1.608 12.584 1.88H12.56C12.976 2.184 13.296 2.584 13.52 3.08C13.744 3.56 13.856 4.12 13.856 4.76V16.16C13.856 17.456 13.424 18.424 12.56 19.064C12.144 19.368 11.712 19.608 11.264 19.784C10.832 19.944 10.408 20.024 9.992 20.024H5.96C5.688 20.024 5.472 19.912 5.312 19.688C5.168 19.464 5.096 19.168 5.096 18.8C5.096 18 5.44 17.6 6.128 17.6H9.392Z" fill="#2649D1"/>
<path d="M24.9543 5.552C25.3703 5.552 25.7943 5.64 26.2263 5.816C26.6743 5.992 27.1063 6.216 27.5223 6.488H27.4983C27.9143 6.792 28.2343 7.192 28.4583 7.688C28.6823 8.168 28.7943 8.728 28.7943 9.368V16.184C28.7943 17.496 28.3623 18.464 27.4983 19.088C26.6503 19.696 25.8023 20 24.9543 20H21.1143C20.6983 20 20.2743 19.928 19.8423 19.784C19.4103 19.64 18.9863 19.408 18.5703 19.088C17.7063 18.48 17.2743 17.512 17.2743 16.184V9.368C17.2743 8.728 17.3863 8.168 17.6103 7.688C17.8343 7.192 18.1543 6.792 18.5703 6.488H18.5463C18.9463 6.216 19.3703 5.992 19.8183 5.816C20.2663 5.64 20.6983 5.552 21.1143 5.552H24.9543ZM24.5223 17.744C25.1143 17.744 25.5303 17.576 25.7703 17.24C26.0263 16.904 26.1543 16.544 26.1543 16.16V9.392C26.1543 8.992 26.0263 8.632 25.7703 8.312C25.5303 7.976 25.1143 7.808 24.5223 7.808H21.5463C20.9543 7.808 20.5303 7.976 20.2743 8.312C20.0343 8.632 19.9143 8.992 19.9143 9.392V16.16C19.9143 16.544 20.0343 16.904 20.2743 17.24C20.5303 17.576 20.9543 17.744 21.5463 17.744H24.5223ZM34.469 15.992V19.04C34.469 19.792 34.029 20.168 33.149 20.168C32.269 20.168 31.829 19.792 31.829 19.04V1.952C31.829 1.184 32.269 0.8 33.149 0.8C34.029 0.8 34.469 1.184 34.469 1.952V12.128C34.869 11.648 35.309 11.136 35.789 10.592C36.285 10.032 36.773 9.472 37.253 8.912C37.749 8.336 38.237 7.776 38.717 7.232C39.197 6.672 39.645 6.152 40.061 5.672V5.696C40.349 5.36 40.637 5.192 40.925 5.192C41.085 5.192 41.237 5.232 41.381 5.312C41.541 5.376 41.709 5.472 41.885 5.6H41.861C42.245 5.92 42.437 6.24 42.437 6.56C42.437 6.672 42.413 6.8 42.365 6.944C42.317 7.072 42.237 7.184 42.125 7.28L34.469 15.992ZM42.485 18.392C42.597 18.6 42.653 18.816 42.653 19.04C42.653 19.456 42.413 19.768 41.933 19.976C41.613 20.168 41.325 20.264 41.069 20.264C40.893 20.264 40.725 20.2 40.565 20.072C40.405 19.96 40.277 19.816 40.181 19.64L37.781 15.008C37.637 14.768 37.565 14.528 37.565 14.288C37.565 13.888 37.773 13.552 38.189 13.28C38.301 13.2 38.413 13.128 38.525 13.064C38.653 13 38.789 12.952 38.933 12.92C39.109 12.888 39.277 12.92 39.437 13.016C39.597 13.112 39.733 13.24 39.845 13.4L42.485 18.392ZM48.2739 18.032C48.2739 18.576 48.0899 19.04 47.7219 19.424C47.3539 19.792 46.8979 19.976 46.3539 19.976C45.8099 19.976 45.3539 19.792 44.9859 19.424C44.6179 19.04 44.4339 18.576 44.4339 18.032C44.4339 17.504 44.6179 17.056 44.9859 16.688C45.3539 16.304 45.8099 16.112 46.3539 16.112C46.8979 16.112 47.3539 16.304 47.7219 16.688C48.0899 17.056 48.2739 17.504 48.2739 18.032ZM54.0862 18.992C54.0862 19.76 53.6462 20.144 52.7662 20.144C51.8862 20.144 51.4462 19.76 51.4462 18.992V9.344C51.4462 8.688 51.5502 8.12 51.7582 7.64C51.9662 7.16 52.2942 6.768 52.7422 6.464C53.5902 5.856 54.4382 5.552 55.2862 5.552H59.1502C59.9662 5.552 60.8142 5.856 61.6942 6.464C62.5582 7.072 62.9902 8.032 62.9902 9.344V18.992C62.9902 19.76 62.5502 20.144 61.6702 20.144C60.7902 20.144 60.3502 19.76 60.3502 18.992V9.56C60.3502 9.144 60.2222 8.744 59.9662 8.36L59.9902 8.384C59.7822 8 59.3582 7.808 58.7182 7.808H55.7182C55.0622 7.808 54.6302 8 54.4222 8.384C54.1982 8.72 54.0862 9.112 54.0862 9.56V18.992ZM68.7346 16.16C68.7346 16.544 68.8546 16.904 69.0946 17.24C69.3506 17.576 69.7746 17.744 70.3666 17.744H73.3666C73.9586 17.744 74.3746 17.6 74.6146 17.312C74.8706 17.008 74.9986 16.664 74.9986 16.28V16.016C74.9986 15.264 75.4386 14.888 76.3186 14.888C77.1986 14.888 77.6386 15.264 77.6386 16.016V16.304C77.6386 16.976 77.5266 17.528 77.3026 17.96C77.0946 18.392 76.7746 18.768 76.3426 19.088C75.4946 19.696 74.6466 20 73.7986 20H69.7666C68.9186 20 68.0946 19.696 67.2946 19.088C66.9106 18.768 66.6146 18.368 66.4066 17.888C66.1986 17.392 66.0946 16.824 66.0946 16.184V9.344C66.0946 8.048 66.4946 7.088 67.2946 6.464C67.6946 6.176 68.1026 5.952 68.5186 5.792C68.9506 5.616 69.3666 5.528 69.7666 5.528H73.7986C74.1826 5.528 74.6066 5.608 75.0706 5.768C75.5346 5.912 75.9666 6.112 76.3666 6.368C76.7506 6.64 77.0546 7.016 77.2786 7.496C77.5186 7.976 77.6386 8.544 77.6386 9.2V12.44C77.6386 12.808 77.5266 13.136 77.3026 13.424C77.0946 13.712 76.7026 13.856 76.1266 13.856H70.9426C70.3666 13.856 70.0626 13.48 70.0306 12.728C70.0306 11.976 70.3346 11.6 70.9426 11.6H75.0226L74.9986 9.368C74.9986 8.968 74.8706 8.608 74.6146 8.288C74.3746 7.952 73.9586 7.784 73.3666 7.784H70.3666C69.7746 7.784 69.3506 7.952 69.0946 8.288C68.8546 8.608 68.7346 8.968 68.7346 9.368V16.16ZM83.8402 7.808V16.544C83.8402 16.96 83.9282 17.28 84.1042 17.504C84.2802 17.728 84.6562 17.84 85.2322 17.84H85.8562C86.4802 17.84 86.7762 18.208 86.7442 18.944C86.7442 19.696 86.4482 20.072 85.8562 20.072H85.0642C84.5522 20.072 84.0722 20.008 83.6242 19.88C83.1762 19.736 82.7442 19.536 82.3282 19.28V19.304C81.5442 18.792 81.1522 17.88 81.1522 16.568V7.808H80.2162C79.6402 7.808 79.3362 7.432 79.3042 6.68C79.3042 5.928 79.6082 5.552 80.2162 5.552H81.1522V2.984C81.1522 2.216 81.6082 1.832 82.5202 1.832C83.4002 1.832 83.8402 2.216 83.8402 2.984V5.552H85.8322C86.4562 5.552 86.7522 5.928 86.7202 6.68C86.7202 7.432 86.4242 7.808 85.8322 7.808H83.8402Z" fill="white"/>
</svg>
