<svg width="33" height="28" viewBox="0 0 33 28" xmlns="http://www.w3.org/2000/svg">
<path d="M32.4905 0.764374C32.0874 0.271408 31.4836 0 30.7903 0C30.4134 0 30.0141 0.0793076 29.6037 0.23616L1.66979 10.8994C0.187369 11.4651 -0.0122849 12.3141 0.000555333 12.7698C0.0133956 13.2255 0.260885 14.0619 1.77302 14.543C1.78208 14.5458 1.79114 14.5485 1.80021 14.551L7.59444 16.2092L10.728 25.1697C11.1552 26.3913 12.1142 27.1501 13.2311 27.1501C13.9353 27.1501 14.6279 26.855 15.2342 26.2971L18.8181 22.9972L24.0164 27.1829C24.0169 27.1834 24.0176 27.1836 24.0182 27.1841L24.0675 27.2239C24.072 27.2274 24.0768 27.2312 24.0813 27.2347C24.6592 27.6829 25.2898 27.9195 25.9059 27.9198H25.9062C27.1099 27.9198 28.0684 27.0288 28.3476 25.6501L32.9245 3.05019C33.1083 2.14307 32.9542 1.33136 32.4905 0.764374ZM9.53282 15.8942L20.7117 10.1833L13.751 17.5796C13.6369 17.7007 13.5561 17.849 13.5163 18.0104L12.1741 23.4471L9.53282 15.8942ZM13.9242 24.8746C13.8779 24.9172 13.8313 24.9552 13.7847 24.9902L15.03 19.9467L17.2951 21.7708L13.9242 24.8746ZM31.0294 2.66624L26.4525 25.2664C26.4085 25.4827 26.2677 25.9859 25.9059 25.9859C25.7272 25.9859 25.5026 25.8885 25.2727 25.7115L19.3823 20.9687C19.3816 20.9679 19.3806 20.9672 19.3795 20.9667L15.8747 18.1443L25.9407 7.44836C26.2629 7.10596 26.2921 6.58152 26.0099 6.20538C25.7274 5.82923 25.2156 5.7109 24.7969 5.9249L8.24099 14.3829L2.36795 12.7026L30.2933 2.04261C30.5292 1.95248 30.6938 1.93359 30.7903 1.93359C30.8494 1.93359 30.9547 1.94064 30.9937 1.98873C31.0451 2.05142 31.1105 2.26517 31.0294 2.66624Z"/>
</svg>
