<svg width="36" height="23" viewBox="0 0 36 23" xmlns="http://www.w3.org/2000/svg">
<path d="M18.2175 22.4375C23.4255 22.4375 21.5685 19.2321 21.9705 18.3104C21.9645 17.6221 21.9585 16.96 21.9825 16.5575C22.3125 16.6479 23.091 17.0315 24.699 18.551C27.1815 20.9865 27.816 22.4375 29.8215 22.4375H33.513C34.683 22.4375 35.292 21.9665 35.5965 21.5713C35.8905 21.1892 36.1785 20.5183 35.8635 19.4742C35.04 16.96 30.237 12.6185 29.9385 12.1606C29.9835 12.076 30.0555 11.9637 30.093 11.9054H30.09C31.038 10.6877 34.656 5.41729 35.1885 3.30854C35.19 3.30562 35.1915 3.30125 35.1915 3.29688C35.4795 2.33438 35.2155 1.71021 34.9425 1.35729C34.5315 0.829375 33.8775 0.5625 32.994 0.5625H29.3025C28.0665 0.5625 27.129 1.16771 26.655 2.27167C25.8615 4.23312 23.6325 8.26688 21.9615 9.69458C21.9105 7.67188 21.945 6.1275 21.972 4.97979C22.026 2.74125 22.2 0.5625 19.8105 0.5625H14.0085C12.5115 0.5625 11.079 2.15208 12.63 4.03917C13.986 5.69292 13.1175 6.61458 13.41 11.2025C12.27 10.014 10.242 6.80417 8.808 2.70187C8.406 1.59208 7.797 0.563958 6.0825 0.563958H2.391C0.894 0.563958 0 1.35729 0 2.68583C0 5.66958 6.7935 22.4375 18.2175 22.4375ZM6.0825 2.75146C6.408 2.75146 6.441 2.75146 6.6825 3.41792C8.151 7.62229 11.445 13.8435 13.851 13.8435C15.6585 13.8435 15.6585 12.0425 15.6585 11.3644L15.657 5.96562C15.558 4.17917 14.889 3.28958 14.4495 2.75L19.7115 2.75583C19.7145 2.78063 19.6815 8.72771 19.7265 10.1685C19.7265 12.2146 21.3975 13.3871 24.006 10.8204C26.7585 7.80021 28.662 3.28521 28.7385 3.10146C28.851 2.83896 28.9485 2.75 29.3025 2.75H32.994H33.009C33.0075 2.75437 33.0075 2.75875 33.006 2.76312C32.6685 4.29437 29.337 9.17396 28.2225 10.6892C28.2045 10.7125 28.188 10.7373 28.1715 10.7621C27.681 11.5408 27.282 12.4012 28.239 13.6117H28.2405C28.3275 13.7137 28.554 13.9529 28.884 14.2854C29.91 15.315 33.429 18.8354 33.741 20.2354C33.534 20.2675 33.309 20.2442 29.8215 20.2515C29.079 20.2515 28.4985 19.1723 26.283 16.9994C24.291 15.1152 22.998 14.3452 21.8205 14.3452C19.5345 14.3452 19.701 16.1492 19.722 18.3308C19.7295 20.6963 19.7145 19.9481 19.731 20.0969C19.5975 20.1479 19.215 20.25 18.2175 20.25C8.7 20.25 2.502 5.56313 2.2635 2.75583C2.346 2.74854 3.4815 2.75292 6.0825 2.75146Z"/>
</svg>
