<svg width="27" height="27" viewBox="0 0 27 27" xmlns="http://www.w3.org/2000/svg">
<path fill-rule="evenodd" clip-rule="evenodd" d="M22.3181 3.81477C19.8623 1.35608 16.5963 0.00144195 13.1168 0C5.94711 0 0.111992 5.83495 0.109108 13.0066C0.108147 15.2991 0.707039 17.5371 1.84538 19.5097L0 26.25L6.89559 24.4411C8.79561 25.4776 10.9347 26.0238 13.1115 26.0244H13.117C20.2859 26.0244 26.1217 20.189 26.1244 13.017C26.1258 9.54126 24.7741 6.27331 22.3181 3.81477ZM13.1168 23.8277H13.1123C11.1724 23.8269 9.26985 23.3055 7.60968 22.3207L7.21507 22.0863L3.12312 23.1597L4.21532 19.1702L3.95817 18.7611C2.8759 17.0397 2.30441 15.0502 2.30537 13.0074C2.30761 7.04652 7.15771 2.1969 13.1212 2.1969C16.0089 2.19786 18.7235 3.32387 20.7646 5.36744C22.8058 7.41101 23.9293 10.1273 23.9283 13.0162C23.9257 18.9776 19.076 23.8277 13.1168 23.8277ZM19.0471 15.7305C18.7222 15.5677 17.1242 14.7816 16.8262 14.673C16.5285 14.5646 16.3116 14.5106 16.0951 14.8358C15.8783 15.161 15.2556 15.8932 15.0659 16.11C14.8762 16.3269 14.6868 16.3542 14.3617 16.1914C14.0366 16.0288 12.9895 15.6854 11.7479 14.5782C10.7818 13.7164 10.1296 12.652 9.93988 12.3268C9.7505 12.0012 9.93828 11.8423 10.0825 11.6635C10.4343 11.2266 10.7866 10.7685 10.8949 10.5517C11.0034 10.3348 10.9491 10.145 10.8677 9.98234C10.7866 9.81972 10.1366 8.21995 9.86586 7.56898C9.60182 6.93549 9.3341 7.02104 9.13447 7.01111C8.94509 7.00166 8.72832 6.99973 8.51154 6.99973C8.29493 6.99973 7.94277 7.08096 7.64477 7.40652C7.34692 7.73193 6.50739 8.51811 6.50739 10.1179C6.50739 11.7177 7.67201 13.2631 7.83447 13.48C7.99693 13.697 10.1264 16.9798 13.3866 18.3875C14.1621 18.7227 14.7674 18.9225 15.2395 19.0723C16.0182 19.3196 16.7265 19.2847 17.2866 19.2011C17.9112 19.1077 19.2094 18.4147 19.4805 17.6556C19.7513 16.8964 19.7513 16.2457 19.6699 16.11C19.5888 15.9745 19.372 15.8932 19.0471 15.7305Z"/>
</svg>
